HIERARCHY
ROOT Hips
{
  OFFSET -331.093 83.8371 -317.828
  CHANNELS 6 Xposition Yposition Zposition Zrotation Xrotation Yrotation
  JOINT LeftUpLeg
  {
    OFFSET 8.64259 1.95398 -2.38835
    CHANNELS 3 Zrotation Xrotation Yrotation
    JOINT LeftLeg
    {
      OFFSET 43.7702 0 0
      CHANNELS 3 Zrotation Xrotation Yrotation
      JOINT LeftFoot
      {
        OFFSET 40.6238 0 0
        CHANNELS 3 Zrotation Xrotation Yrotation
        JOINT LeftToeBase
        {
          OFFSET 12.7242 0 0
          CHANNELS 3 Zrotation Xrotation Yrotation
          End Site
          {
            OFFSET 0 0 0
          }
        }
      }
    }
  }
  JOINT RightUpLeg
  {
    OFFSET -8.2249 1.95398 -2.59336
    CHANNELS 3 Zrotation Xrotation Yrotation
    JOINT RightLeg
    {
      OFFSET 43.5653 0 0
      CHANNELS 3 Zrotation Xrotation Yrotation
      JOINT RightFoot
      {
        OFFSET 40.6238 0 0
        CHANNELS 3 Zrotation Xrotation Yrotation
        JOINT RightToeBase
        {
          OFFSET 12.7242 0 0
          CHANNELS 3 Zrotation Xrotation Yrotation
          End Site
          {
            OFFSET 0 0 0
          }
        }
      }
    }
  }
  JOINT Spine
  {
    OFFSET 0.165834 0.87714 6.61349
    CHANNELS 3 Zrotation Xrotation Yrotation
    JOINT Spine1
    {
      OFFSET 7.38963 1.71661e-005 0
      CHANNELS 3 Zrotation Xrotation Yrotation
      JOINT Spine2
      {
        OFFSET 11.9445 1.14441e-005 0
        CHANNELS 3 Zrotation Xrotation Yrotation
        JOINT Spine3
        {
          OFFSET 14.7254 4.19617e-005 0
          CHANNELS 3 Zrotation Xrotation Yrotation
          JOINT Spine4
          {
            OFFSET 10.9679 0 0
            CHANNELS 3 Zrotation Xrotation Yrotation
            JOINT RightShoulder
            {
              OFFSET 2.46616 -1.6653 3.69651
              CHANNELS 3 Zrotation Xrotation Yrotation
              JOINT RightArm
              {
                OFFSET 13.0012 0 0
                CHANNELS 3 Zrotation Xrotation Yrotation
                JOINT RightForeArm
                {
                  OFFSET 28.7848 1.62311e-005 0
                  CHANNELS 3 Zrotation Xrotation Yrotation
                  JOINT RightHand
                  {
                    OFFSET 26.5688 1.62095e-005 0
                    CHANNELS 3 Zrotation Xrotation Yrotation
                    End Site
                    {
                      OFFSET 0 0 0
                    }
                  }
                }
              }
            }
            JOINT LeftShoulder
            {
              OFFSET 2.38034 -1.29275 -3.7523
              CHANNELS 3 Zrotation Xrotation Yrotation
              JOINT LeftArm
              {
                OFFSET 16.3182 6.07031e-005 0
                CHANNELS 3 Zrotation Xrotation Yrotation
                JOINT LeftForeArm
                {
                  OFFSET 27.0901 0 0
                  CHANNELS 3 Zrotation Xrotation Yrotation
                  JOINT LeftHand
                  {
                    OFFSET 24.5451 1.51738e-005 0
                    CHANNELS 3 Zrotation Xrotation Yrotation
                    End Site
                    {
                      OFFSET 0 0 0
                    }
                  }
                }
              }
            }
            JOINT Neck
            {
              OFFSET 5.0226 -0.0266342 0
              CHANNELS 3 Zrotation Xrotation Yrotation
              JOINT Head
              {
                OFFSET 6.69364 2.86102e-005 0
                CHANNELS 3 Zrotation Xrotation Yrotation
                End Site
                {
                  OFFSET 0 0 0
                }
              }
            }
          }
        }
      }
    }
  }
}
MOTION
Frames:	15
Frame Time:	0.0416667
41.8413 99.1995 -276.199 -58.1979 -85.9824 -58.3276 -176.238 7.81783 87.1203 -16.9682 10.3945 -1.37815 64.3221 6.35043 8.48833 32.8585 3.05127 0.048016 174.28 5.61955 92.0432 -16.8761 -9.23025 -2.94587 69.2739 -4.34296 -2.30637 30.2189 -0.754899 -5.57071 -0.103454 7.03074 -89.9609 12.8387 -0.186657 0.100451 1.16779 -0.182063 0.108569 -21.3675 -0.208219 0.039715 -1.35482 -0.208227 0.0397021 91.2381 -39.8684 -100.926 37.7407 -10.2 5.4805 -14.026 -14.0054 -44.7976 -10.6497 -1.16427 8.07211 -97.0313 -50.1251 68.8839 -23.921 6.96531 3.47216 7.44008 15.2059 -35.3168 10.1846 0.880652 4.44009 5.63331 1.24524 2.74207 -6.6199 0.704632 0.103614 
41.8901 99.2043 -276.118 -58.669 -85.9145 -58.7371 -176.299 7.70476 87.1323 -16.9902 9.7789 -1.24896 65.0913 6.44909 7.5561 31.888 2.57654 1.01393 174.267 5.55091 92.0415 -16.8053 -9.04706 -2.93701 69.2512 -4.3398 -2.30364 30.6251 -0.585121 -4.10879 -0.0620573 7.03069 -89.9531 12.8179 -0.10074 0.105851 1.14695 -0.0959777 0.110181 -21.3882 -0.1279 0.0706932 -1.37557 -0.127902 0.070675 91.2449 -39.9982 -100.88 37.7526 -10.2193 5.48054 -14.1953 -14.1504 -44.8632 -10.3098 -1.16992 8.65246 -97.3188 -49.9808 68.419 -23.6986 7.13295 3.43571 7.35743 15.2493 -35.1517 10.5371 0.937002 4.69132 5.57648 1.20054 2.67644 -6.51444 0.677396 0.0295526 
41.8772 99.1642 -275.968 -61.0043 -85.5686 -60.8764 -176.125 7.6606 87.3265 -17.0377 9.77071 -1.33934 64.9033 6.50164 8.19543 32.6529 2.93068 0.171202 174.407 5.17517 92.1895 -16.1322 -9.31687 -2.99504 68.7841 -4.20009 -2.23405 31.5777 -0.591302 -3.78767 -0.0200646 7.03207 -89.9554 12.8092 -0.0184732 0.091303 1.13823 -0.0144306 0.0920193 -21.3969 -0.0450499 0.0815398 -1.38427 -0.0450622 0.0815214 91.2012 -40.0751 -100.935 37.5046 -10.6546 5.23214 -13.5618 -14.2977 -44.4461 -10.1278 -1.14335 8.55297 -96.642 -49.6289 69.2914 -24.0724 7.30782 3.24437 7.67202 15.655 -35.4556 10.7189 1.04458 5.50109 5.62076 1.28672 2.40211 -6.37364 0.803674 0.265706 
41.9818 99.18 -275.983 -52.5132 -86.0301 -52.5277 -176.262 7.81817 87.1774 -16.7521 10.2301 -1.32064 65.0169 6.34022 7.68228 31.9807 2.777 1.50768 174.097 5.18147 91.9654 -15.8197 -9.2265 -2.80212 69.1993 -4.42957 -2.3366 30.6438 -0.592457 -4.16262 -0.0796164 7.00961 -89.9575 12.8547 -0.13765 0.101596 1.18378 -0.133047 0.107557 -21.3514 -0.161826 0.0555288 -1.33878 -0.161824 0.0555334 91.2548 -40.0523 -100.848 37.428 -10.5057 5.57007 -14.3423 -14.4693 -45.2002 -9.29427 -1.07356 8.99513 -96.958 -49.8604 68.905 -23.8274 7.2981 3.30339 7.78934 15.7395 -35.6382 10.9265 1.09292 5.75496 5.59924 1.43567 2.48886 -6.38881 0.923381 0.550126 
42.0398 99.1478 -275.877 -51.4039 -85.9847 -51.4051 -176.339 7.79555 87.0652 -16.6636 10.2606 -1.28786 64.8973 6.68308 8.37558 32.3937 2.81773 0.478507 173.936 5.16946 91.8596 -15.7728 -9.42217 -2.69547 69.4604 -4.54659 -2.38962 30.1102 -0.669489 -4.97118 -0.0684952 7.01914 -89.958 12.8357 -0.11586 0.0978995 1.16471 -0.111427 0.1029 -21.3705 -0.139929 0.0585514 -1.35783 -0.139919 0.0585597 91.1591 -40.0489 -101.014 37.2913 -10.5976 5.45374 -14.0596 -14.1846 -44.8143 -8.63665 -0.980112 8.73665 -96.8344 -49.8171 69.0715 -23.8836 7.26143 3.06459 7.94683 15.9797 -35.6617 10.7291 1.10593 6.02089 5.66819 1.49913 2.36807 -6.54456 1.00995 0.460579 
42.0946 99.1727 -275.755 -47.8297 -85.9511 -47.8264 -176.315 7.87026 87.0967 -16.5588 9.86779 -1.29392 65.1058 6.29426 7.58617 32.4527 2.84348 0.408529 174.002 5.01656 91.8771 -15.1667 -9.35967 -2.75623 69.1202 -4.41736 -2.32757 30.9042 -0.663423 -4.56898 -0.0479972 7.00069 -89.9616 12.8724 -0.0768573 0.0860754 1.2015 -0.0729947 0.0893604 -21.3337 -0.0991722 0.0589958 -1.32102 -0.0991745 0.0589856 91.2568 -39.995 -100.86 37.3329 -10.787 5.45374 -13.4764 -14.2867 -44.2419 -9.86044 -1.10802 8.52069 -97.042 -49.8185 68.7688 -23.8051 7.31483 3.2037 7.72175 15.6332 -35.6125 10.5004 0.984855 5.14172 5.79716 1.43561 2.30822 -7.04764 0.952971 0.493027 
42.178 99.1462 -275.6 -44.7574 -85.924 -44.837 -176.486 7.89989 86.9036 -16.4502 10.2687 -1.2224 64.9919 6.52573 8.07913 32.4842 2.89329 0.504194 173.872 5.18466 91.7271 -15.3598 -9.29018 -2.69195 69.3445 -4.48876 -2.36155 30.9165 -0.664088 -4.57052 -0.0503083 6.97997 -89.9502 12.9139 -0.0759746 0.108746 1.24299 -0.0711105 0.111986 -21.2922 -0.105144 0.0808952 -1.27951 -0.105149 0.0808867 91.1731 -40.2071 -100.948 37.1826 -10.5153 6.0782 -13.944 -14.4486 -44.8782 -9.54561 -1.0642 8.40832 -97.1406 -49.9552 68.6695 -23.8055 7.33776 3.39462 7.87041 15.8932 -35.6561 10.4492 1.00934 5.39441 5.92126 1.45047 2.54695 -7.214 0.939149 0.0354545 
42.3436 99.0736 -275.486 -38.9522 -86.0233 -38.9887 -176.92 8.35478 86.6189 -17.1911 9.74892 -0.781816 65.3795 6.88199 8.01775 32.682 3.01094 0.387471 173.76 5.29079 91.6526 -15.4167 -8.95318 -2.62135 69.7005 -4.60853 -2.41451 29.9455 -0.611028 -4.58689 -0.0685639 6.98554 -89.954 12.9028 -0.114053 0.105705 1.23189 -0.109287 0.11062 -21.3033 -0.140551 0.0665478 -1.29065 -0.14055 0.066541 91.3364 -39.9958 -100.723 37.2041 -10.7631 5.50897 -13.0005 -14.2006 -43.8833 -9.30618 -1.0441 8.5125 -97.2169 -49.8627 68.528 -23.9145 7.06767 3.47535 8.01034 15.9607 -35.7401 10.0859 0.975644 5.37371 6.08033 1.30515 2.64362 -7.19421 0.786827 -0.248152 
42.4277 99.1253 -275.311 -35.4668 -86.2644 -35.5697 -176.641 7.92651 86.7212 -16.6847 10.1648 -1.08331 65.5958 6.59185 7.54561 32.3865 2.8512 0.623108 173.452 4.66036 91.4732 -14.3383 -7.85847 -2.41648 69.3118 -4.55166 -2.38218 30.8036 -0.337165 -2.21892 -0.06401 6.99666 -89.9657 12.8806 -0.110582 0.0819439 1.20964 -0.106873 0.0867142 -21.3255 -0.130101 0.0449079 -1.3129 -0.130107 0.0449033 91.3758 -39.9874 -100.657 37.3118 -10.1582 6.02634 -13.733 -14.3532 -44.6054 -8.40928 -0.944157 8.56559 -97.7579 -50.2219 67.8616 -23.4637 7.46106 3.57563 7.362 15.2938 -35.2733 10.3633 0.913214 4.60588 5.5214 1.12931 2.1766 -6.53059 0.677366 0.656704 
42.679 98.9762 -275.126 -27.491 -86.5967 -27.5145 -176.859 8.3027 86.5157 -17.8639 9.80847 -0.838362 66.5305 7.30778 7.10024 31.3807 1.97235 0.163654 173.36 4.95062 91.4195 -15.3279 -7.48152 -2.38182 69.9488 -4.70589 -2.45596 31.1492 -0.39728 -2.55826 -0.0844079 7.01532 -89.9711 12.8432 -0.153704 0.0763112 1.1723 -0.150195 0.0830005 -21.3629 -0.169537 0.0265858 -1.35028 -0.169532 0.0265892 91.3826 -40.2457 -100.577 36.8741 -10.6398 5.95874 -13.2646 -13.9291 -44.2499 -8.89258 -0.964687 7.98301 -97.5289 -50.0572 68.1391 -23.8741 7.4546 3.28231 7.19458 15.2638 -35.0008 10.6669 0.902704 4.30488 5.81827 1.06693 2.13129 -6.83947 0.630617 0.331393 
42.9492 98.9207 -274.742 -29.4686 -86.3214 -29.4608 -176.774 8.30628 86.3729 -17.9113 10.2741 -1.0107 66.1204 7.52435 8.2039 31.8438 1.8565 -1.63455 173.645 5.0075 91.4033 -15.5866 -7.83584 -2.70686 70.0614 -4.84475 -2.51666 31.7586 -0.555488 -3.47976 -0.0420047 7.02295 -89.9739 12.828 -0.0708772 0.0606135 1.15704 -0.0681427 0.0636666 -21.3781 -0.0858195 0.0365082 -1.36548 -0.0858162 0.0365122 91.3605 -40.1887 -100.63 36.6901 -10.6486 5.88543 -13.1788 -13.8722 -44.0022 -8.47017 -0.9352 8.27508 -97.3183 -49.9761 68.4179 -24.2121 7.3948 3.26778 7.56039 15.6645 -35.2431 10.0956 0.849746 4.2084 5.86402 0.909703 2.05406 -7.10638 0.48084 0.519622 
43.2192 98.8634 -274.433 -20.8076 -86.5083 -20.6801 -176.733 8.77257 86.3395 -18.7954 10.7339 -1.07678 66.1265 7.61267 8.17628 32.7218 2.83079 -0.386064 173.988 5.36577 91.5735 -16.6568 -7.31407 -2.98239 70.1131 -4.79833 -2.50321 32.2394 -0.831913 -5.17796 -0.0809768 7.03434 -89.9925 12.8052 -0.157139 0.0338345 1.13427 -0.1555 0.0406959 -21.401 -0.160049 -0.0149571 -1.38831 -0.160049 -0.0149708 91.5573 -39.8086 -100.39 37.1066 -10.3018 5.93294 -13.4044 -13.7217 -44.4451 -7.96798 -0.898738 8.66216 -97.3098 -50.0255 68.4466 -24.2885 7.3347 3.38897 7.62807 15.5312 -35.4844 9.36614 0.752605 3.8229 5.69246 0.849749 2.26994 -6.82956 0.394981 0.289238 
43.4626 98.8473 -274.105 -20.0778 -86.7439 -20.0547 -176.783 9.04179 86.0847 -19.8525 11.1723 -1.1188 65.325 7.29232 8.51378 33.6457 3.51349 -0.410907 174.002 5.63952 91.3923 -17.7901 -7.03092 -3.15205 70.0088 -4.60562 -2.42742 32.9315 -0.9197 -5.4581 -0.0592219 7.07364 -89.9635 12.7266 -0.100143 0.084737 1.05565 -0.0963299 0.089061 -21.4795 -0.120989 0.0507129 -1.46687 -0.120988 0.0507236 91.4657 -39.8586 -100.535 36.8569 -10.8135 5.66357 -12.9241 -14.1196 -43.6416 -8.26958 -0.922001 8.44943 -97.1589 -49.8163 68.5973 -24.4189 7.85176 3.3177 7.67348 15.8607 -35.568 10.4146 0.894202 4.40089 5.82325 0.665211 2.24201 -7.88906 0.233649 -0.0978813 
43.7477 99.0402 -273.809 -18.9936 -86.5747 -18.8076 -176.355 8.90855 86.3826 -19.4159 11.4799 -1.5605 65.3609 6.96575 8.2581 32.8043 2.75769 -0.881521 174.357 5.93735 91.6329 -18.1412 -6.10075 -3.3222 69.5201 -4.42323 -2.34665 32.9027 -0.959078 -5.73141 -0.0498248 7.0718 -89.9518 12.7303 -0.0758443 0.105391 1.05934 -0.0711311 0.108623 -21.4758 -0.10401 0.0777305 -1.46316 -0.104018 0.0777165 91.3092 -40.1076 -100.74 36.834 -10.6687 5.79873 -13.315 -14.3096 -43.9418 -7.49884 -0.836647 8.51503 -97.1906 -49.7685 68.5357 -24.1764 7.67034 3.58177 7.34926 15.1768 -35.4362 9.35448 0.718694 3.50176 5.41701 0.548945 2.02245 -7.45506 0.168712 -0.113943 
43.9379 99.1143 -273.557 -17.203 -86.2438 -16.8541 -176.307 8.84603 86.4661 -18.7368 12.1219 -1.6971 64.8789 6.76304 8.87493 32.806 2.78589 -0.782676 174.404 6.08915 91.6882 -17.794 -5.65725 -3.23134 68.982 -4.26913 -2.27048 33.5423 -0.916587 -5.18393 -0.0599807 7.05829 -89.9739 12.7573 -0.106583 0.0647956 1.08638 -0.103629 0.0694163 -21.4488 -0.121128 0.0297656 -1.43616 -0.121131 0.0297623 91.3471 -39.8805 -100.734 37.0326 -10.6647 5.64193 -13.6641 -14.098 -44.5744 -8.32421 -0.95558 8.91064 -97.569 -50.077 68.0875 -23.6808 7.7213 3.77133 7.3269 15.1467 -35.5113 10.1344 0.836206 4.07846 4.72586 0.577574 2.1225 -6.21122 0.18863 -0.0831809 
